<svg id="Layer_1" enable-background="new 0 0 48 48" viewBox="0 0 48 48" xmlns="http://www.w3.org/2000/svg"><g><path d="m24 2.5c-11.86 0-21.5 9.64-21.5 21.5 0 6.92 3.3 13.07 8.39 17 .13.14.28.26.46.34 3.55 2.6 7.92 4.15 12.65 4.15s9.1-1.55 12.65-4.15c.17-.08.33-.2.46-.34 5.09-3.94 8.39-10.08 8.39-17 0-11.86-9.64-21.5-21.5-21.5zm0 40c-3.88 0-7.48-1.21-10.46-3.26.39-4.33 4.03-7.74 8.46-7.74h4c4.43 0 8.08 3.41 8.46 7.74-2.98 2.05-6.58 3.26-10.46 3.26zm-7.5-21.5c0-4.14 3.36-7.5 7.5-7.5s7.5 3.36 7.5 7.5-3.36 7.5-7.5 7.5-7.5-3.36-7.5-7.5zm20.6 16.05c-.93-3.5-3.46-6.34-6.77-7.69 2.53-1.92 4.17-4.95 4.17-8.35 0-5.79-4.71-10.5-10.5-10.5s-10.5 4.7-10.5 10.49c0 3.41 1.64 6.44 4.17 8.35-3.3 1.35-5.84 4.2-6.77 7.69-3.34-3.34-5.4-7.95-5.4-13.04 0-10.2 8.3-18.5 18.5-18.5s18.5 8.3 18.5 18.5c0 5.09-2.06 9.7-5.4 13.05z" fill="#000000" style="fill: rgb(255, 239, 205);"></path></g></svg>